name D:\school\WTK\thesis\model\3dpredictsim\Results\MidTarsalJoint\Fal_s1_bCst_PF_Natali2010_ls150_MT_k200_MTP_T10_ig24.mot
datacolumns 128
datarows 4
range 0.00000000 0.03487946
endheader
time	pelvis_tilt	pelvis_list	pelvis_rotation	pelvis_tx	pelvis_ty	pelvis_tz	hip_flexion_l	hip_adduction_l	hip_rotation_l	hip_flexion_r	hip_adduction_r	hip_rotation_r	knee_angle_l	knee_angle_r	ankle_angle_l	ankle_angle_r	subtalar_angle_l	subtalar_angle_r	mtj_angle_l	mtj_angle_r	mtp_angle_l	mtp_angle_r	lumbar_extension	lumbar_bending	lumbar_rotation	arm_flex_l	arm_add_l	arm_rot_l	arm_flex_r	arm_add_r	arm_rot_r	elbow_flex_l	elbow_flex_r	pro_sup_l	pro_sup_r	glut_med1_l/activation	glut_med2_l/activation	glut_med3_l/activation	glut_min1_l/activation	glut_min2_l/activation	glut_min3_l/activation	semimem_l/activation	semiten_l/activation	bifemlh_l/activation	bifemsh_l/activation	sar_l/activation	add_long_l/activation	add_brev_l/activation	add_mag1_l/activation	add_mag2_l/activation	add_mag3_l/activation	tfl_l/activation	pect_l/activation	grac_l/activation	glut_max1_l/activation	glut_max2_l/activation	glut_max3_l/activation	iliacus_l/activation	psoas_l/activation	quad_fem_l/activation	gem_l/activation	peri_l/activation	rect_fem_l/activation	vas_med_l/activation	vas_int_l/activation	vas_lat_l/activation	med_gas_l/activation	lat_gas_l/activation	soleus_l/activation	tib_post_l/activation	flex_dig_l/activation	flex_hal_l/activation	tib_ant_l/activation	per_brev_l/activation	per_long_l/activation	per_tert_l/activation	ext_dig_l/activation	ext_hal_l/activation	ercspn_l/activation	intobl_l/activation	extobl_l/activation	glut_med1_r/activation	glut_med2_r/activation	glut_med3_r/activation	glut_min1_r/activation	glut_min2_r/activation	glut_min3_r/activation	semimem_r/activation	semiten_r/activation	bifemlh_r/activation	bifemsh_r/activation	sar_r/activation	add_long_r/activation	add_brev_r/activation	add_mag1_r/activation	add_mag2_r/activation	add_mag3_r/activation	tfl_r/activation	pect_r/activation	grac_r/activation	glut_max1_r/activation	glut_max2_r/activation	glut_max3_r/activation	iliacus_r/activation	psoas_r/activation	quad_fem_r/activation	gem_r/activation	peri_r/activation	rect_fem_r/activation	vas_med_r/activation	vas_int_r/activation	vas_lat_r/activation	med_gas_r/activation	lat_gas_r/activation	soleus_r/activation	tib_post_r/activation	flex_dig_r/activation	flex_hal_r/activation	tib_ant_r/activation	per_brev_r/activation	per_long_r/activation	per_tert_r/activation	ext_dig_r/activation	ext_hal_r/activation	ercspn_r/activation	intobl_r/activation	extobl_r/activation	
          0.00000000	         -2.92857762	         -2.30245419	          5.79453076	          0.00000000	          0.91852916	         -0.00233620	        -16.62695963	         -1.13826163	          6.61439459	         28.93379613	          3.38522144	         -2.62658525	         -8.30409680	         -8.39282458	         -2.81182510	          6.14826563	          7.21255111	         -6.58295548	          6.85203366	         -0.07743034	          7.48976740	         -0.75670455	         -1.97519875	          0.31702518	         -2.29252879	          5.62268234	        -13.45092625	         17.53384864	         -4.85727019	        -13.46248452	          8.23318422	         34.38574298	         15.39661847	         86.51662706	         86.51662706	          0.25358477	          0.10154563	          0.08088973	          0.27308256	          0.18917814	          0.11345125	          0.05000110	          0.05000023	          0.05000014	          0.05095318	          0.11597646	          0.05000107	          0.05000074	          0.05000041	          0.05000079	          0.05000035	          0.30815842	          0.06002877	          0.05000102	          0.05000102	          0.05000067	          0.05000056	          0.46648068	          0.67566281	          0.05000009	          0.05000034	          0.05997555	          0.29123674	          0.05000015	          0.05000015	          0.05000014	          0.29054435	          0.40010222	          0.35877806	          0.27123975	          0.25866872	          0.34021881	          0.05000002	          0.05968882	          0.12391537	          0.05000022	          0.05000005	          0.05000016	          0.05000000	          0.05000004	          0.05000016	          0.05968872	          0.05968871	          0.05000021	          0.05968876	          0.05968875	          0.05010131	          0.22333225	          0.09749833	          0.14651171	          0.10168511	          0.05000015	          0.15182004	          0.22625531	          0.23830325	          0.21438311	          0.11782642	          0.05000009	          0.05000165	          0.15845422	          0.05651607	          0.08869228	          0.15634898	          0.05000020	          0.05000010	          0.15379185	          0.26412398	          0.11778564	          0.05000007	          0.07951056	          0.07702875	          0.06972010	          0.06784772	          0.06907656	          0.06296643	          0.05000003	          0.05000023	          0.05000019	          0.43489585	          0.25934225	          0.17809107	          0.11766579	          0.47585160	          0.21951072	          0.05860331	          0.12606361	          0.10154557	
          0.01162649	         -2.93012858	         -2.37652913	          6.09758179	          0.01752881	          0.91762054	         -0.00214926	        -16.61342178	         -1.44742364	          6.40108699	         28.32425224	          3.75144901	         -2.37249413	        -10.04212735	         -8.94848024	         -3.27457103	          5.49555191	          8.19253516	         -6.91130308	          5.83562516	         -0.15571760	          9.20508055	         -0.75189616	         -1.76749956	          0.49162168	         -2.36622727	          5.33987728	        -13.45851668	         17.82732116	         -5.81223050	        -13.45319302	          8.06176609	         35.65610224	         15.01526514	         86.51662706	         86.51662706	          0.21242268	          0.08506267	          0.06775971	          0.22875565	          0.15847061	          0.09503577	          0.05000234	          0.05000068	          0.05000074	          0.05000027	          0.09715129	          0.10112835	          0.05000787	          0.05968868	          0.05020334	          0.05968840	          0.25813796	          0.05045907	          0.05009712	          0.05000629	          0.05000339	          0.05000486	          0.39076116	          0.63914579	          0.05001947	          0.05964844	          0.05968740	          0.24396304	          0.12184319	          0.13389572	          0.13745889	          0.24338290	          0.33515726	          0.31984107	          0.24403302	          0.21668196	          0.28499688	          0.05000004	          0.05000022	          0.14075651	          0.05000014	          0.05000004	          0.05000022	          0.05360303	          0.07101709	          0.06066988	          0.05000001	          0.05000004	          0.08947791	          0.05000005	          0.05000006	          0.05000008	          0.18708076	          0.08167233	          0.12272980	          0.08517952	          0.05969028	          0.12717666	          0.30391407	          0.30353153	          0.19256278	          0.10978132	          0.05000027	          0.07129042	          0.13273574	          0.05000163	          0.10486590	          0.14869095	          0.05000038	          0.07014324	          0.52328951	          0.22125116	          0.09866665	          0.05968916	          0.06739158	          0.06872642	          0.05973674	          0.06877188	          0.07125486	          0.06296525	          0.05968875	          0.05080255	          0.05968872	          0.45412056	          0.26459082	          0.22045126	          0.09856628	          0.39861095	          0.18387956	          0.05000000	          0.10560084	          0.08506259	
          0.02325297	         -2.92717452	         -2.45199853	          6.36620833	          0.03540097	          0.91672887	         -0.00198692	        -16.56165056	         -1.75823716	          6.18244168	         27.61441583	          4.00910480	         -2.09053881	        -11.83492922	         -9.62745288	         -3.85115061	          4.89654133	          9.13585150	         -7.24817930	          4.63266647	         -0.28865726	         11.04159445	         -0.71719791	         -1.53693293	          0.67756250	         -2.42604357	          4.96455051	        -13.46280491	         18.02717692	         -6.80444125	        -13.45306816	          7.93994385	         36.92011595	         14.70060978	         86.51662706	         86.51662706	          0.29408195	          0.07125525	          0.05676113	          0.29759518	          0.13274761	          0.07960953	          0.05000080	          0.05000012	          0.05000010	          0.05000016	          0.08138236	          0.08471317	          0.05000020	          0.05000029	          0.05000050	          0.05000040	          0.26091628	          0.05000101	          0.05000042	          0.05000276	          0.05000150	          0.05000070	          0.33020857	          0.61554160	          0.05000025	          0.05000086	          0.05000048	          0.20436281	          0.11381617	          0.11216164	          0.11514672	          0.20387673	          0.28075420	          0.26792414	          0.20442151	          0.18151010	          0.23873607	          0.05000001	          0.09029262	          0.15726969	          0.05000010	          0.05000004	          0.05000009	          0.05000004	          0.05948953	          0.05082189	          0.22617657	          0.21681157	          0.24487808	          0.33051217	          0.21680879	          0.19918205	          0.15671368	          0.07296856	          0.10280831	          0.07803182	          0.05000148	          0.10653325	          0.25458248	          0.25426205	          0.16130597	          0.12799207	          0.05000031	          0.05971892	          0.11119055	          0.05000023	          0.12027492	          0.12712660	          0.05459498	          0.05875760	          0.43834863	          0.18533751	          0.18167108	          0.05000037	          0.05645257	          0.05757074	          0.05004026	          0.05760877	          0.05968873	          0.05274467	          0.05000006	          0.05000029	          0.05000034	          0.51673630	          0.33039069	          0.18466745	          0.35152147	          0.49700553	          0.15403286	          0.05616443	          0.13123768	          0.07125515	
          0.03487946	         -2.92201995	         -2.52453146	          6.59502333	          0.05338712	          0.91591249	         -0.00180011	        -16.42065313	         -2.06355564	          5.97712252	         26.88344379	          4.23350593	         -1.80750378	        -13.74320288	        -10.27832236	         -4.55975362	          4.33058252	         10.04264039	         -7.57450972	          3.30249475	         -0.21702570	         12.89768187	         -0.69966106	         -1.30883660	          0.87017463	         -2.47616044	          4.53477531	        -13.47107540	         18.15836292	         -7.78138184	        -13.45464010	          7.86701339	         38.15332361	         14.42687879	         86.51662706	         86.51662706	          0.26662567	          0.05968906	          0.05000021	          0.24928961	          0.11119994	          0.06668728	          0.05000165	          0.05000021	          0.05000018	          0.05000017	          0.06817259	          0.11266520	          0.05000319	          0.05000240	          0.05000276	          0.05000079	          0.21856444	          0.06783216	          0.05000183	          0.05000237	          0.05000160	          0.05000131	          0.27660882	          0.57467454	          0.05000053	          0.05000130	          0.05000020	          0.17119044	          0.13955962	          0.13962080	          0.13265460	          0.17078325	          0.23518189	          0.22443441	          0.17123966	          0.15204729	          0.19998427	          0.05246791	          0.07563641	          0.15696210	          0.05000070	          0.10008829	          0.05000125	          0.06342171	          0.05000001	          0.05000002	          0.32524226	          0.32400154	          0.34071843	          0.27686326	          0.19656388	          0.20477496	          0.13127581	          0.06269730	          0.08612068	          0.06536570	          0.05000083	          0.08924068	          0.21325841	          0.21299007	          0.13512284	          0.15678225	          0.05000036	          0.05002550	          0.09314212	          0.20729587	          0.18234100	          0.15437398	          0.05000005	          0.05000006	          0.36719546	          0.15525338	          0.15218220	          0.05000006	          0.07420467	          0.07898978	          0.06172960	          0.05000003	          0.05000010	          0.05000001	          0.05000020	          0.05000021	          0.05000024	          0.58971628	          0.35386513	          0.20056459	          0.37225922	          0.52308739	          0.28036848	          0.07656773	          0.10993505	          0.05968894	
